# xmcd
#
# Track frame offsets: 
#        150
#        13725
#        30104
#        43409
#        57341
#        64374
#        76601
#        91612
#        103629
#        112287
#        124948
#        142733
#        161840
#        172068
#
# Disc length: 2503 seconds
#
# Revision: 0
# Processed by: cddbd v1.5.2PL0 Copyright (c) Steve Scherf et al.
# Submitted via: ExactAudioCopy v1.0b3
#
DISCID=b809c50e
DTITLE=Nichol Robertson - Stranger Things
DYEAR=1900
DGENRE=
TTITLE0=Mobius Smurf
TTITLE1=Diamond Ride
TTITLE2=Yoodoo Juan
TTITLE3=Stooge Country
TTITLE4=Black Mountain Rag
TTITLE5=The Old Man And The Duck
TTITLE6=Pentagram Rock
TTITLE7=Eatin' Tavern Blues
TTITLE8=Ponzi Scheme Boogie
TTITLE9=Nhc
TTITLE10=Stranger Things Have Not Happened
TTITLE11=Nice Golden Watch
TTITLE12=Clinch Mountain Backstep
TTITLE13=Waltz For Adel
EXTD=
EXTT0=
EXTT1=
EXTT2=
EXTT3=
EXTT4=
EXTT5=
EXTT6=
EXTT7=
EXTT8=
EXTT9=
EXTT10=
EXTT11=
EXTT12=
EXTT13=
PLAYORDER=
